<svg xmlns="http://www.w3.org/2000/svg" data-name="S_SDKTutorialLineTool_Lg_N@2x" height="36" id="S_SDKTutorialLineTool_Lg_N_2x" viewBox="0 0 44 36" width="44">
  <defs>
    <style>
      .fill {
        opacity: 0.65;
      }

      
    </style>
  </defs>
  <title>S_SDKTutorialLineTool_Lg_N@2x</title>
  <path class="fill" d="M2.865,11.261a1.068,1.068,0,0,0,0,1.51l3.667,3.667a1.068,1.068,0,0,0,1.51,0l.186-.184.008.017,8.42-8.42a1.053,1.053,0,0,0-.147-1.289L12.792,2.846a1.068,1.068,0,0,0-1.51,0L2.866,11.26Z" />
  <path class="fill" d="M20,3.5v-1a.5.5,0,0,1,.5-.5H41a1,1,0,0,1,1,1V33a1,1,0,0,1-1,1H34.207a.5.5,0,0,1-.353-.854l1-1A.5.5,0,0,1,35.207,32H40V4H20.5A.5.5,0,0,1,20,3.5Z" />
  <path class="fill" d="M9.316,18.607l3.628,7.876A2,2,0,0,0,14,27.494l15.912,6.6A1,1,0,0,0,31,33.877l.593-.593-8.147-8.147a1.716,1.716,0,0,1-.276.04,2,2,0,1,1,2-2,1.691,1.691,0,0,1-.037.254l8.156,8.156.523-.523a1,1,0,0,0,.216-1.09l-6.6-15.912a2,2,0,0,0-1.011-1.051L18.538,9.383Z" />
  </svg>